# xmcd CD database file
#
# Track frame offsets:
#	150
#	19248
#	57105
#	79994
#	104090
#	131644
#	163572
#	199590
#
# Disc length: 2915 seconds
#
# Revision: 0
# Processed by: cddbd v1.5.1PL2 Copyright (c) Steve Scherf et al.
# Submitted via: CDex 1.51
#
DISCID=690b6108
DTITLE=Ivar Kolve Trio - Innover
DYEAR=2004
DGENRE=Jazz
TTITLE0=Another blues for Yvard
TTITLE1=Innover
TTITLE2=Parasitt
TTITLE3=Fattig ynskje
TTITLE4=Quasi latino blues
TTITLE5=Parents
TTITLE6=Ostinato
TTITLE7=Bristol balsam
EXTD=YEAR: 2004
EXTT0=
EXTT1=
EXTT2=
EXTT3=
EXTT4=
EXTT5=
EXTT6=
EXTT7=
PLAYORDER=
